<svg id="svg" version="1.1" xmlns="http://www.w3.org/2000/svg" xmlns:xlink="http://www.w3.org/1999/xlink" width="400" height="405.0632911392405" viewBox="0, 0, 400,405.0632911392405"><g id="svgg"><path id="path0" d="M20.674 157.860 C 20.148 158.386,20.352 251.392,20.880 251.920 C 21.388 252.428,83.635 252.648,85.500 252.148 C 86.810 251.797,86.928 236.711,85.626 236.014 C 85.120 235.743,77.388 235.600,63.288 235.600 C 41.874 235.600,41.719 235.594,40.962 234.758 C 40.227 233.946,40.193 232.571,40.000 195.858 L 39.800 157.800 30.374 157.693 C 25.189 157.634,20.824 157.709,20.674 157.860 M125.314 158.094 C 125.097 158.372,124.719 159.634,124.473 160.897 C 124.228 162.161,123.675 163.691,123.243 164.297 C 122.811 164.904,122.252 166.480,122.000 167.800 C 121.748 169.120,121.194 170.690,120.767 171.289 C 120.341 171.888,119.744 173.561,119.441 175.008 C 119.138 176.454,118.606 177.952,118.259 178.335 C 117.911 178.719,117.339 180.274,116.988 181.791 C 116.636 183.309,116.021 185.011,115.621 185.575 C 115.221 186.139,114.680 187.680,114.418 189.000 C 114.156 190.320,113.594 191.890,113.167 192.489 C 112.741 193.088,112.144 194.761,111.841 196.208 C 111.538 197.654,110.979 199.181,110.600 199.600 C 110.221 200.019,109.657 201.586,109.347 203.081 C 109.037 204.576,108.441 206.269,108.023 206.842 C 107.604 207.415,107.067 208.945,106.829 210.242 C 106.590 211.539,106.030 213.096,105.583 213.703 C 105.137 214.309,104.581 215.839,104.347 217.101 C 103.921 219.410,103.375 220.807,102.734 221.227 C 102.544 221.352,102.130 222.691,101.814 224.203 C 101.497 225.714,100.901 227.412,100.489 227.976 C 100.077 228.539,99.527 230.080,99.266 231.400 C 99.006 232.720,98.464 234.250,98.061 234.800 C 97.658 235.350,97.031 237.119,96.668 238.732 C 96.305 240.345,95.667 242.098,95.250 242.627 C 94.833 243.157,94.365 244.448,94.208 245.495 C 94.052 246.543,93.473 248.356,92.921 249.526 C 91.590 252.344,91.062 252.200,102.705 252.200 L 112.944 252.200 113.587 249.600 C 113.940 248.170,114.524 246.550,114.884 246.000 C 115.244 245.450,115.730 243.945,115.964 242.656 C 116.198 241.367,116.738 239.747,117.164 239.056 C 117.591 238.365,118.152 236.956,118.411 235.925 C 119.285 232.449,118.444 232.616,135.742 232.477 C 154.821 232.323,153.922 232.109,155.198 237.106 C 155.438 238.044,155.968 239.394,156.375 240.106 C 156.783 240.818,157.329 242.660,157.587 244.200 C 157.846 245.740,158.330 247.301,158.662 247.668 C 158.995 248.036,159.488 249.206,159.760 250.268 L 160.252 252.200 170.826 252.200 L 181.400 252.200 181.295 250.878 C 181.238 250.150,180.843 249.070,180.418 248.478 C 179.993 247.885,179.459 246.353,179.232 245.074 C 179.004 243.795,178.450 242.232,178.000 241.600 C 177.550 240.968,176.996 239.405,176.768 238.126 C 176.541 236.847,176.003 235.311,175.574 234.712 C 175.145 234.114,174.520 232.321,174.185 230.728 C 173.850 229.135,173.428 227.735,173.248 227.616 C 172.643 227.218,172.093 225.818,171.601 223.424 C 171.332 222.117,170.773 220.587,170.358 220.024 C 169.944 219.461,169.414 217.920,169.180 216.600 C 168.946 215.280,168.403 213.711,167.974 213.112 C 167.545 212.514,166.912 210.804,166.566 209.312 C 166.221 207.821,165.708 206.330,165.426 206.000 C 164.777 205.241,164.000 202.952,164.000 201.800 C 164.000 201.315,163.543 200.060,162.985 199.011 C 162.427 197.961,161.778 196.179,161.542 195.051 C 161.306 193.923,160.747 192.397,160.299 191.660 C 159.852 190.923,159.243 189.163,158.947 187.749 C 158.650 186.335,158.059 184.688,157.633 184.089 C 157.206 183.490,156.645 181.931,156.385 180.624 C 156.125 179.317,155.573 177.787,155.158 177.224 C 154.744 176.661,154.214 175.120,153.980 173.800 C 153.746 172.480,153.203 170.910,152.773 170.311 C 152.344 169.712,151.754 168.087,151.464 166.700 C 151.173 165.313,150.606 163.676,150.204 163.063 C 149.802 162.449,149.264 161.014,149.007 159.874 L 148.540 157.800 137.124 157.694 C 128.291 157.612,125.619 157.702,125.314 158.094 M195.457 158.482 C 195.116 159.756,195.214 249.965,195.558 251.200 L 195.837 252.200 219.818 252.200 C 240.936 252.200,244.134 252.119,246.600 251.526 C 248.140 251.155,251.063 250.548,253.095 250.177 C 255.339 249.767,257.131 249.206,257.660 248.748 C 258.139 248.333,259.266 247.779,260.165 247.518 C 261.705 247.070,265.600 243.699,265.600 242.814 C 265.600 242.616,265.941 242.346,266.357 242.214 C 266.773 242.082,267.328 241.457,267.589 240.826 C 267.850 240.195,268.491 239.279,269.011 238.789 C 269.532 238.300,270.080 237.337,270.228 236.650 C 270.377 235.962,271.026 234.381,271.671 233.135 C 273.428 229.744,273.416 215.322,271.655 214.234 C 271.439 214.100,270.952 213.048,270.573 211.895 C 270.195 210.743,269.281 209.124,268.543 208.299 C 267.804 207.473,267.200 206.618,267.200 206.399 C 267.200 206.179,266.969 206.000,266.688 206.000 C 265.995 206.000,260.800 201.603,260.800 201.016 C 260.800 200.760,261.385 200.120,262.100 199.594 C 262.815 199.068,263.940 198.014,264.600 197.252 C 265.260 196.489,266.133 195.518,266.540 195.093 C 266.946 194.668,267.647 193.214,268.096 191.860 C 268.545 190.507,269.065 189.204,269.251 188.965 C 271.451 186.142,269.481 171.968,266.421 168.600 C 266.021 168.160,265.404 167.228,265.051 166.528 C 264.698 165.829,264.074 165.150,263.665 165.021 C 263.256 164.891,262.726 164.355,262.486 163.830 C 262.223 163.251,261.564 162.768,260.816 162.604 C 260.137 162.454,259.011 161.852,258.315 161.266 C 257.433 160.524,256.230 160.061,254.351 159.743 C 252.868 159.491,251.056 158.952,250.327 158.544 C 249.079 157.847,247.420 157.796,222.351 157.683 L 195.703 157.563 195.457 158.482 M352.551 159.585 C 348.506 159.950,347.298 160.234,346.380 161.037 C 346.039 161.335,344.984 161.853,344.035 162.188 C 343.086 162.522,341.712 163.321,340.981 163.963 C 340.250 164.604,339.290 165.244,338.847 165.385 C 338.404 165.526,337.943 165.951,337.823 166.329 C 337.702 166.708,337.061 167.612,336.396 168.340 C 335.732 169.067,334.893 170.233,334.532 170.931 C 334.171 171.629,333.554 172.650,333.161 173.200 C 332.767 173.750,332.258 175.255,332.028 176.544 C 331.799 177.833,331.240 179.488,330.787 180.221 C 330.087 181.354,329.951 182.295,329.882 186.477 L 329.800 191.400 337.400 191.514 C 347.133 191.659,346.623 191.808,346.944 188.734 C 347.086 187.371,347.448 185.881,347.748 185.424 C 348.047 184.966,348.495 183.648,348.742 182.495 C 350.636 173.665,366.046 171.424,370.148 179.382 C 370.596 180.251,371.272 181.272,371.649 181.649 C 373.183 183.183,373.090 192.910,371.526 194.474 C 371.088 194.912,370.478 195.872,370.171 196.608 C 369.864 197.343,369.422 198.063,369.190 198.206 C 368.958 198.350,368.319 199.178,367.771 200.047 C 366.643 201.832,364.187 204.186,362.128 205.452 C 361.366 205.921,360.475 206.686,360.148 207.152 C 359.822 207.619,359.322 208.000,359.039 208.000 C 358.755 208.000,357.874 208.585,357.081 209.300 C 354.803 211.354,353.104 212.634,351.700 213.354 C 350.985 213.721,350.400 214.191,350.400 214.400 C 350.400 214.609,349.815 215.079,349.100 215.446 C 348.385 215.812,347.440 216.452,347.000 216.867 C 346.560 217.283,344.872 218.833,343.249 220.311 C 341.625 221.790,339.555 223.801,338.649 224.779 C 337.742 225.758,336.593 226.982,336.096 227.501 C 335.599 228.020,334.915 229.107,334.577 229.917 C 334.239 230.726,333.613 231.761,333.186 232.215 C 332.759 232.670,332.232 233.979,332.014 235.124 C 331.797 236.269,331.241 237.718,330.778 238.345 C 329.885 239.552,328.322 251.255,328.967 251.901 C 329.490 252.424,390.821 252.480,391.450 251.958 C 392.024 251.482,392.274 238.863,391.748 236.900 L 391.507 236.000 373.772 236.000 C 351.840 236.000,350.780 235.714,356.002 231.200 C 356.893 230.430,358.253 229.215,359.024 228.500 C 359.796 227.785,360.584 227.200,360.775 227.200 C 360.967 227.200,361.878 226.570,362.800 225.800 C 363.722 225.030,364.677 224.400,364.924 224.400 C 365.170 224.400,365.738 224.035,366.186 223.589 C 366.961 222.817,367.747 222.234,371.400 219.723 C 372.280 219.118,373.430 218.213,373.955 217.712 C 374.480 217.210,375.082 216.800,375.294 216.800 C 375.506 216.800,376.195 216.305,376.827 215.700 C 377.458 215.095,378.614 214.060,379.396 213.400 C 380.178 212.740,381.128 211.872,381.509 211.472 C 381.889 211.071,383.171 209.721,384.357 208.472 C 385.544 207.222,386.675 205.621,386.873 204.912 C 387.070 204.204,387.643 203.124,388.148 202.512 C 388.652 201.901,389.294 200.500,389.575 199.400 C 389.855 198.300,390.447 196.320,390.890 195.000 C 392.179 191.161,392.037 182.875,390.632 179.905 C 390.065 178.705,389.600 177.344,389.600 176.880 C 389.600 175.758,388.838 174.056,387.716 172.669 C 387.212 172.047,386.800 171.323,386.800 171.058 C 386.800 170.794,386.305 170.109,385.700 169.536 C 385.095 168.963,383.792 167.662,382.805 166.647 C 381.818 165.631,380.787 164.800,380.515 164.800 C 380.242 164.800,379.736 164.369,379.391 163.843 C 378.993 163.234,378.079 162.714,376.882 162.414 C 375.847 162.155,374.633 161.601,374.185 161.182 C 372.669 159.765,360.508 158.868,352.551 159.585 M242.163 174.392 C 243.464 174.605,244.902 175.122,245.363 175.543 C 245.823 175.964,246.610 176.432,247.111 176.584 C 247.612 176.736,248.332 177.339,248.711 177.924 C 249.090 178.508,249.695 179.285,250.056 179.650 C 251.453 181.060,251.449 187.751,250.051 189.149 C 249.687 189.513,248.978 190.389,248.474 191.095 C 247.858 191.961,247.012 192.526,245.880 192.827 C 244.956 193.072,243.570 193.662,242.800 194.137 C 241.411 194.993,219.060 195.754,216.220 195.041 C 214.622 194.640,214.400 193.294,214.400 184.004 C 214.400 175.407,214.416 175.234,215.289 174.623 C 216.337 173.888,237.955 173.702,242.163 174.392 M138.981 185.700 C 139.279 186.415,139.651 188.037,139.808 189.306 C 139.968 190.594,140.433 192.042,140.863 192.589 C 141.286 193.127,141.888 194.902,142.200 196.533 C 142.512 198.164,143.134 200.120,143.582 200.879 C 144.030 201.638,144.507 203.146,144.642 204.230 C 144.778 205.313,145.406 207.288,146.038 208.619 C 147.438 211.564,147.669 214.419,146.603 215.597 C 145.482 216.835,128.038 216.838,126.800 215.600 C 125.560 214.360,125.948 209.650,127.428 207.981 C 127.730 207.641,128.256 206.036,128.597 204.415 C 128.938 202.793,129.558 200.912,129.976 200.233 C 130.393 199.555,130.938 197.830,131.188 196.400 C 131.438 194.970,131.967 193.347,132.364 192.793 C 132.762 192.238,133.374 190.377,133.725 188.656 C 134.497 184.872,134.846 184.400,136.869 184.400 C 138.265 184.400,138.501 184.546,138.981 185.700 M282.040 207.751 C 281.722 208.135,281.616 210.726,281.691 216.251 L 281.800 224.200 300.000 224.200 L 318.200 224.200 318.308 216.337 C 318.401 209.582,318.327 208.384,317.780 207.837 C 316.885 206.943,282.779 206.861,282.040 207.751 M241.685 210.912 C 242.501 211.261,244.029 211.675,245.080 211.833 C 246.392 212.030,247.305 212.456,247.995 213.193 C 248.548 213.784,249.384 214.472,249.853 214.722 C 252.697 216.241,254.033 223.255,252.191 227.000 C 251.650 228.100,251.200 229.180,251.191 229.400 C 251.170 229.927,247.825 232.959,245.800 234.287 C 242.899 236.190,216.283 236.826,214.967 235.024 C 214.511 234.399,214.400 232.133,214.400 223.413 C 214.400 212.157,214.479 211.575,216.177 210.276 C 217.014 209.636,240.043 210.210,241.685 210.912 " stroke="none" fill="#070907" fill-rule="evenodd"></path><path id="path1" d="M0.000 202.400 L 0.000 404.800 200.000 404.800 L 400.000 404.800 400.000 202.400 L 400.000 0.000 200.000 0.000 L 0.000 0.000 0.000 202.400 M40.624 156.568 C 41.381 157.122,41.403 158.041,41.506 194.723 L 41.612 232.310 42.506 232.549 C 42.998 232.681,52.744 232.792,64.165 232.795 L 84.930 232.800 86.658 233.813 C 89.149 235.273,89.200 235.480,89.200 244.174 C 89.200 251.467,89.145 252.055,88.400 252.800 C 87.118 254.082,20.685 254.054,19.054 252.771 L 18.000 251.942 18.000 205.007 L 18.000 158.071 19.231 157.036 L 20.461 156.000 30.154 156.000 C 37.894 156.000,40.004 156.114,40.624 156.568 M149.180 156.389 C 149.581 156.604,150.021 157.229,150.159 157.779 C 150.297 158.329,150.846 159.421,151.378 160.206 C 151.946 161.043,152.460 162.544,152.622 163.836 C 152.773 165.048,153.117 166.260,153.385 166.528 C 154.287 167.430,154.749 168.641,155.217 171.329 C 155.473 172.798,155.837 174.000,156.027 174.000 C 156.624 174.000,157.237 175.556,157.650 178.122 C 157.883 179.567,158.372 180.944,158.824 181.426 C 159.251 181.880,159.790 183.320,160.023 184.626 C 160.255 185.932,160.807 187.503,161.248 188.118 C 161.689 188.733,162.320 190.529,162.650 192.109 C 162.979 193.690,163.391 195.077,163.565 195.191 C 164.200 195.611,164.856 197.289,165.193 199.354 C 165.382 200.519,165.980 202.124,166.521 202.921 C 167.125 203.812,167.613 205.263,167.787 206.685 C 167.968 208.165,168.368 209.321,168.895 209.889 C 169.391 210.424,169.930 211.895,170.249 213.578 C 170.558 215.215,171.094 216.694,171.539 217.139 C 171.997 217.597,172.491 218.997,172.778 220.650 C 173.062 222.287,173.571 223.738,174.036 224.235 C 174.489 224.719,175.002 226.147,175.257 227.635 C 175.500 229.046,175.963 230.503,176.287 230.874 C 177.080 231.780,177.961 234.329,177.982 235.778 C 177.992 236.427,178.456 237.614,179.012 238.418 C 179.625 239.302,180.187 240.890,180.435 242.440 C 180.661 243.848,181.017 245.061,181.227 245.135 C 182.515 245.589,183.520 251.253,182.570 252.702 L 181.974 253.612 170.498 253.506 C 159.058 253.400,159.022 253.397,158.576 252.503 C 158.330 252.009,157.838 251.284,157.482 250.890 C 157.126 250.497,156.634 248.831,156.390 247.188 C 156.128 245.425,155.610 243.730,155.127 243.054 C 154.677 242.424,154.092 240.624,153.828 239.054 C 153.430 236.692,153.180 236.113,152.374 235.696 C 151.353 235.168,120.744 235.121,120.219 235.647 C 120.084 235.783,119.789 237.043,119.566 238.447 C 119.338 239.875,118.745 241.617,118.220 242.400 C 117.665 243.228,117.174 244.721,117.018 246.053 C 116.849 247.495,116.402 248.784,115.777 249.631 C 115.240 250.359,114.800 251.268,114.800 251.649 C 114.800 253.508,114.222 253.600,102.600 253.600 C 93.185 253.600,91.569 253.512,91.029 252.971 C 89.909 251.852,90.455 247.781,91.958 246.049 C 92.378 245.564,92.830 244.222,92.982 243.007 C 93.138 241.758,93.658 240.237,94.203 239.433 C 94.726 238.663,95.345 236.991,95.579 235.717 C 95.813 234.442,96.344 232.939,96.758 232.376 C 97.173 231.813,97.732 230.283,98.001 228.976 C 98.506 226.521,99.044 225.180,99.696 224.754 C 99.903 224.619,100.323 223.194,100.629 221.588 C 100.956 219.871,101.508 218.324,101.968 217.834 C 102.433 217.338,102.917 215.970,103.160 214.460 C 103.529 212.167,104.014 211.034,104.911 210.370 C 105.082 210.243,105.404 208.983,105.625 207.570 C 105.849 206.144,106.407 204.479,106.878 203.830 C 107.345 203.187,107.974 201.483,108.276 200.043 C 108.577 198.604,109.163 197.060,109.578 196.613 C 109.993 196.166,110.459 194.900,110.615 193.800 C 110.946 191.468,111.795 189.200,112.339 189.200 C 112.547 189.200,112.927 187.985,113.182 186.500 C 113.438 185.013,114.066 183.171,114.581 182.400 C 115.096 181.630,115.638 180.100,115.787 179.000 C 115.935 177.900,116.506 176.311,117.054 175.469 C 117.603 174.627,118.218 172.920,118.420 171.675 C 118.623 170.430,119.158 168.913,119.608 168.303 C 120.059 167.693,120.615 166.161,120.843 164.897 C 121.071 163.634,121.695 161.960,122.229 161.178 C 122.763 160.397,123.200 159.460,123.200 159.097 C 123.200 158.022,124.063 156.450,124.756 156.265 C 126.125 155.899,148.477 156.013,149.180 156.389 M250.346 156.376 C 252.216 156.593,253.683 157.006,254.362 157.508 C 254.950 157.943,256.054 158.423,256.816 158.575 C 258.798 158.969,260.400 159.637,260.400 160.069 C 260.400 160.273,261.026 160.703,261.792 161.022 C 262.558 161.342,263.460 162.025,263.798 162.540 C 264.135 163.055,264.859 163.681,265.406 163.930 C 265.953 164.179,266.400 164.655,266.400 164.988 C 266.400 165.321,266.937 166.072,267.593 166.657 C 268.315 167.300,268.887 168.289,269.042 169.160 C 269.182 169.952,269.770 171.107,270.348 171.726 L 271.400 172.853 271.400 182.000 L 271.400 191.147 270.367 192.274 C 269.799 192.893,269.117 194.166,268.851 195.102 C 268.570 196.088,267.960 197.070,267.399 197.437 C 266.867 197.786,266.321 198.417,266.187 198.840 C 266.053 199.263,265.380 199.900,264.692 200.256 L 263.440 200.903 264.420 201.676 C 266.899 203.630,268.817 205.455,269.007 206.039 C 269.122 206.391,269.634 206.869,270.145 207.102 C 270.773 207.388,271.246 208.135,271.600 209.399 C 271.888 210.430,272.350 211.359,272.626 211.465 C 275.252 212.473,275.468 233.520,272.873 235.621 C 272.425 235.984,271.930 236.969,271.772 237.809 C 271.612 238.661,270.935 239.934,270.243 240.685 C 269.559 241.425,268.415 242.660,267.700 243.429 C 266.985 244.198,266.400 245.005,266.400 245.222 C 266.400 245.439,265.953 245.821,265.408 246.069 C 264.862 246.318,264.305 246.871,264.169 247.297 C 264.034 247.724,263.286 248.339,262.508 248.664 C 261.729 248.990,260.621 249.601,260.046 250.023 C 259.471 250.445,258.054 250.968,256.897 251.186 C 255.740 251.403,254.240 251.990,253.564 252.490 L 252.334 253.400 223.584 253.513 L 194.835 253.625 194.117 252.530 C 193.369 251.389,192.732 168.088,193.413 160.462 C 193.852 155.545,191.012 155.997,221.300 156.018 C 235.655 156.027,248.726 156.189,250.346 156.376 M366.155 156.790 C 367.451 157.002,368.801 157.438,369.155 157.758 C 369.510 158.078,370.934 158.467,372.320 158.624 C 374.101 158.825,375.333 159.242,376.520 160.047 C 377.444 160.673,378.524 161.189,378.919 161.193 C 379.315 161.197,380.035 161.615,380.519 162.123 C 381.004 162.631,382.042 163.435,382.826 163.910 C 384.344 164.830,388.400 169.365,388.400 170.143 C 388.400 170.399,388.752 170.827,389.182 171.096 C 389.612 171.365,390.242 172.518,390.580 173.659 C 390.919 174.800,391.457 176.021,391.775 176.372 C 393.792 178.601,393.750 197.883,391.723 200.089 C 391.263 200.590,390.758 201.607,390.601 202.348 C 390.444 203.089,389.794 204.241,389.158 204.907 C 388.521 205.574,388.000 206.422,388.000 206.794 C 388.000 207.727,380.546 215.548,379.378 215.841 C 378.856 215.972,378.315 216.438,378.176 216.876 C 378.037 217.314,377.332 217.920,376.610 218.222 C 375.888 218.523,375.194 219.037,375.069 219.364 C 374.944 219.691,374.247 220.264,373.521 220.639 C 372.794 221.013,371.980 221.631,371.711 222.012 C 371.442 222.393,370.520 222.985,369.663 223.328 C 368.805 223.671,367.993 224.241,367.857 224.595 C 367.722 224.949,367.064 225.428,366.397 225.661 C 365.729 225.894,365.002 226.423,364.780 226.838 C 364.558 227.253,363.797 227.889,363.088 228.251 C 362.380 228.614,361.209 229.426,360.486 230.055 C 359.763 230.685,358.953 231.201,358.686 231.203 C 358.419 231.204,357.893 231.744,357.519 232.403 C 357.144 233.061,356.559 233.600,356.219 233.600 C 355.878 233.600,355.600 233.780,355.600 234.000 C 355.600 234.261,361.873 234.400,373.618 234.400 L 391.636 234.400 392.618 235.382 C 393.872 236.636,394.170 251.008,392.977 252.711 L 392.355 253.600 359.977 253.600 C 323.842 253.600,325.980 253.770,326.012 250.900 C 326.040 248.482,326.826 243.819,327.340 243.034 C 327.640 242.575,328.101 240.940,328.366 239.400 C 328.636 237.827,329.256 235.986,329.780 235.200 C 330.293 234.430,330.833 233.115,330.979 232.278 C 331.125 231.440,331.639 230.361,332.122 229.878 C 332.604 229.396,333.269 228.521,333.600 227.934 C 335.458 224.632,341.182 218.632,344.428 216.583 C 345.292 216.037,346.000 215.434,346.000 215.244 C 346.000 215.053,346.531 214.677,347.181 214.408 C 347.830 214.139,348.644 213.487,348.990 212.960 C 349.336 212.432,349.853 212.000,350.139 212.000 C 350.426 212.000,351.097 211.533,351.630 210.962 C 352.164 210.391,353.140 209.651,353.800 209.316 C 354.460 208.982,355.450 208.299,356.000 207.799 C 356.550 207.299,357.405 206.768,357.900 206.618 C 358.395 206.468,358.800 206.095,358.800 205.787 C 358.800 205.480,359.205 205.022,359.700 204.770 C 360.195 204.518,361.050 203.895,361.600 203.385 C 364.942 200.285,366.800 198.300,366.800 197.830 C 366.800 197.534,367.225 197.013,367.745 196.673 C 368.266 196.332,368.805 195.473,368.949 194.757 C 369.091 194.044,369.656 192.513,370.204 191.355 C 372.775 185.920,369.286 178.682,363.379 177.195 C 356.154 175.376,350.588 179.161,349.933 186.340 C 349.276 193.537,349.857 193.200,338.082 193.200 C 326.885 193.200,327.759 193.929,328.281 185.028 C 328.636 178.961,328.748 178.314,329.688 176.917 C 330.249 176.083,330.818 174.655,330.952 173.744 C 331.201 172.049,333.182 168.588,334.927 166.800 C 335.463 166.250,336.110 165.395,336.365 164.900 C 336.620 164.405,337.090 164.000,337.411 164.000 C 337.732 164.000,338.462 163.475,339.033 162.834 C 339.605 162.192,340.641 161.443,341.336 161.169 C 342.031 160.895,342.976 160.336,343.435 159.927 C 343.894 159.518,345.424 158.980,346.835 158.733 C 348.246 158.485,349.778 158.036,350.240 157.734 C 352.016 156.576,361.435 156.017,366.155 156.790 M216.000 183.567 C 216.000 187.949,216.109 191.819,216.243 192.167 C 216.608 193.118,234.369 193.038,240.689 192.057 C 248.155 190.898,250.806 186.748,247.879 180.800 L 246.600 178.200 243.400 177.345 C 241.640 176.875,239.693 176.290,239.074 176.045 C 238.344 175.756,234.091 175.600,226.974 175.600 L 216.000 175.600 216.000 183.567 M134.999 190.700 C 134.557 194.055,134.360 194.743,133.546 195.777 C 133.080 196.370,132.581 197.917,132.346 199.496 C 132.115 201.055,131.587 202.700,131.101 203.381 C 130.635 204.033,130.030 205.862,129.752 207.466 C 129.474 209.063,128.887 210.871,128.447 211.485 C 126.487 214.217,126.406 214.188,136.191 214.308 C 146.700 214.437,146.338 214.520,145.030 212.287 C 144.447 211.293,143.861 209.442,143.644 207.912 C 143.419 206.322,142.927 204.799,142.415 204.106 C 141.889 203.394,141.412 201.885,141.173 200.175 C 140.946 198.546,140.453 196.944,139.979 196.297 C 139.535 195.691,138.993 194.161,138.775 192.897 C 138.044 188.663,138.117 188.800,136.617 188.800 C 135.287 188.800,135.242 188.853,134.999 190.700 M318.000 204.917 C 319.741 205.797,320.057 207.729,319.922 216.680 C 319.832 222.641,319.664 224.898,319.280 225.281 C 318.242 226.318,281.827 226.227,280.784 225.184 C 279.974 224.374,279.950 224.038,280.073 215.337 L 280.200 206.329 281.322 205.365 L 282.445 204.400 299.722 204.406 C 312.835 204.410,317.241 204.534,318.000 204.917 M216.180 213.307 C 216.073 213.586,216.034 218.401,216.093 224.007 L 216.200 234.200 227.600 234.200 C 238.308 234.200,239.146 234.147,241.400 233.329 C 242.720 232.850,244.536 232.266,245.435 232.031 C 246.551 231.740,247.214 231.287,247.526 230.602 C 247.777 230.051,248.261 229.600,248.601 229.600 C 250.827 229.600,250.940 216.879,248.721 216.175 C 248.296 216.040,247.300 215.361,246.509 214.666 C 244.680 213.060,242.763 212.876,227.487 212.832 C 218.862 212.807,216.331 212.913,216.180 213.307 " stroke="none" fill="#b3fba3" fill-rule="evenodd"></path><path id="path2" d="M20.489 157.423 L 19.600 158.045 19.600 205.009 C 19.600 251.030,19.616 251.980,20.374 252.386 C 21.697 253.094,86.046 252.947,87.022 252.233 C 87.733 251.714,87.810 251.031,87.941 244.070 L 88.085 236.474 86.961 235.737 C 85.913 235.050,84.345 234.986,63.938 234.800 C 46.719 234.643,41.928 234.489,41.520 234.080 C 41.104 233.664,40.960 226.034,40.800 195.841 C 40.635 164.679,40.505 158.008,40.051 157.461 C 39.251 156.498,21.858 156.463,20.489 157.423 M125.606 157.153 C 124.798 157.381,124.494 157.880,123.985 159.817 C 123.641 161.127,123.060 162.652,122.695 163.205 C 122.331 163.758,121.825 165.198,121.572 166.405 C 121.320 167.612,120.787 169.140,120.390 169.800 C 119.992 170.460,119.367 172.170,119.000 173.600 C 118.633 175.030,118.008 176.740,117.610 177.400 C 117.213 178.060,116.683 179.577,116.433 180.770 C 116.183 181.964,115.628 183.507,115.200 184.200 C 114.772 184.893,114.219 186.436,113.972 187.630 C 113.724 188.823,113.183 190.388,112.770 191.108 C 112.356 191.827,111.731 193.537,111.380 194.908 C 111.028 196.278,110.481 197.804,110.163 198.298 C 109.845 198.791,109.297 200.321,108.946 201.698 C 108.595 203.074,107.977 204.851,107.573 205.646 C 107.169 206.442,106.623 207.972,106.360 209.046 C 106.096 210.121,105.480 211.810,104.990 212.800 C 104.500 213.790,103.979 215.230,103.832 216.000 C 103.686 216.770,103.139 218.390,102.617 219.600 C 102.096 220.810,101.293 222.925,100.834 224.300 C 100.376 225.675,99.624 227.925,99.166 229.300 C 98.707 230.675,97.909 232.790,97.393 234.000 C 96.876 235.210,96.262 237.045,96.027 238.077 C 95.792 239.110,95.260 240.550,94.844 241.277 C 94.429 242.005,93.867 243.590,93.596 244.800 C 93.324 246.010,92.788 247.540,92.404 248.200 C 91.411 249.905,91.116 251.832,91.766 252.372 C 92.664 253.117,113.234 252.767,113.599 252.000 C 113.756 251.670,114.180 250.545,114.542 249.500 C 114.904 248.455,115.465 246.835,115.790 245.900 C 116.114 244.965,116.641 243.390,116.960 242.400 C 120.201 232.358,118.308 233.251,136.400 233.225 C 153.734 233.199,153.749 233.203,154.580 237.781 C 154.738 238.651,155.213 240.042,155.637 240.873 C 156.061 241.703,156.669 243.626,156.988 245.145 C 157.308 246.665,158.076 248.964,158.694 250.254 L 159.819 252.600 170.810 252.600 L 181.800 252.600 181.926 251.072 C 182.005 250.105,181.754 248.973,181.241 247.989 C 180.796 247.134,180.141 245.302,179.786 243.917 C 179.431 242.533,178.881 240.996,178.563 240.502 C 178.245 240.009,177.697 238.479,177.346 237.102 C 176.995 235.726,176.377 233.949,175.973 233.154 C 175.569 232.358,175.023 230.828,174.760 229.754 C 174.496 228.679,173.880 226.990,173.390 226.000 C 172.900 225.010,172.304 223.276,172.064 222.147 C 171.825 221.018,171.282 219.488,170.859 218.747 C 170.435 218.006,169.867 216.410,169.596 215.200 C 169.324 213.990,168.769 212.447,168.362 211.770 C 167.955 211.094,167.419 209.564,167.172 208.370 C 166.924 207.177,166.383 205.612,165.970 204.892 C 165.556 204.173,164.943 202.525,164.607 201.229 C 164.272 199.933,163.549 197.912,163.002 196.736 C 162.455 195.561,162.004 194.240,162.000 193.800 C 161.996 193.360,161.545 192.039,160.998 190.864 C 160.451 189.688,159.721 187.641,159.377 186.313 C 159.033 184.985,158.479 183.482,158.146 182.974 C 157.813 182.466,157.278 180.926,156.958 179.552 C 156.638 178.179,156.041 176.502,155.631 175.827 C 155.222 175.152,154.680 173.613,154.428 172.406 C 154.175 171.199,153.648 169.669,153.257 169.006 C 152.865 168.343,152.330 166.900,152.068 165.800 C 151.646 164.031,150.483 161.032,149.044 158.000 L 148.570 157.000 137.585 156.937 C 131.543 156.902,126.153 156.999,125.606 157.153 M195.500 157.217 C 194.606 157.757,194.390 251.430,195.280 252.320 C 196.749 253.789,248.870 252.769,253.115 251.188 C 254.278 250.754,255.504 250.400,255.840 250.400 C 257.197 250.400,262.673 247.333,264.200 245.717 C 268.854 240.793,270.245 239.020,270.859 237.223 C 271.222 236.163,271.813 234.847,272.172 234.299 C 274.267 231.102,274.167 215.843,272.031 212.843 C 271.603 212.243,271.129 211.256,270.977 210.650 C 270.601 209.152,267.864 206.025,264.764 203.551 C 263.354 202.426,262.135 201.447,262.056 201.375 C 261.976 201.303,263.107 200.049,264.568 198.587 C 270.510 192.645,273.162 178.398,269.396 172.650 C 269.085 172.175,268.561 171.024,268.232 170.091 C 267.215 167.208,263.202 162.755,260.653 161.682 C 259.977 161.398,259.111 160.882,258.729 160.536 C 258.347 160.190,256.902 159.583,255.517 159.187 C 254.133 158.791,252.190 158.142,251.200 157.744 C 249.047 156.879,196.876 156.384,195.500 157.217 M40.000 195.858 C 40.193 232.571,40.227 233.946,40.962 234.758 C 41.719 235.594,41.874 235.600,63.288 235.600 C 77.388 235.600,85.120 235.743,85.626 236.014 C 86.928 236.711,86.810 251.797,85.500 252.148 C 83.635 252.648,21.388 252.428,20.880 251.920 C 20.352 251.392,20.148 158.386,20.674 157.860 C 20.824 157.709,25.189 157.634,30.374 157.693 L 39.800 157.800 40.000 195.858 M149.007 159.874 C 149.264 161.014,149.802 162.449,150.204 163.063 C 150.606 163.676,151.173 165.313,151.464 166.700 C 151.754 168.087,152.344 169.712,152.773 170.311 C 153.203 170.910,153.746 172.480,153.980 173.800 C 154.214 175.120,154.744 176.661,155.158 177.224 C 155.573 177.787,156.125 179.317,156.385 180.624 C 156.645 181.931,157.206 183.490,157.633 184.089 C 158.059 184.688,158.650 186.335,158.947 187.749 C 159.243 189.163,159.852 190.923,160.299 191.660 C 160.747 192.397,161.306 193.923,161.542 195.051 C 161.778 196.179,162.427 197.961,162.985 199.011 C 163.543 200.060,164.000 201.315,164.000 201.800 C 164.000 202.952,164.777 205.241,165.426 206.000 C 165.708 206.330,166.221 207.821,166.566 209.312 C 166.912 210.804,167.545 212.514,167.974 213.112 C 168.403 213.711,168.946 215.280,169.180 216.600 C 169.414 217.920,169.944 219.461,170.358 220.024 C 170.773 220.587,171.332 222.117,171.601 223.424 C 172.093 225.818,172.643 227.218,173.248 227.616 C 173.428 227.735,173.850 229.135,174.185 230.728 C 174.520 232.321,175.145 234.114,175.574 234.712 C 176.003 235.311,176.541 236.847,176.768 238.126 C 176.996 239.405,177.550 240.968,178.000 241.600 C 178.450 242.232,179.004 243.795,179.232 245.074 C 179.459 246.353,179.993 247.885,180.418 248.478 C 180.843 249.070,181.238 250.150,181.295 250.878 L 181.400 252.200 170.826 252.200 L 160.252 252.200 159.760 250.268 C 159.488 249.206,158.995 248.036,158.662 247.668 C 158.330 247.301,157.846 245.740,157.587 244.200 C 157.329 242.660,156.783 240.818,156.375 240.106 C 155.968 239.394,155.438 238.044,155.198 237.106 C 153.922 232.109,154.821 232.323,135.742 232.477 C 118.444 232.616,119.285 232.449,118.411 235.925 C 118.152 236.956,117.591 238.365,117.164 239.056 C 116.738 239.747,116.198 241.367,115.964 242.656 C 115.730 243.945,115.244 245.450,114.884 246.000 C 114.524 246.550,113.940 248.170,113.587 249.600 L 112.944 252.200 102.705 252.200 C 91.062 252.200,91.590 252.344,92.921 249.526 C 93.473 248.356,94.052 246.543,94.208 245.495 C 94.365 244.448,94.833 243.157,95.250 242.627 C 95.667 242.098,96.305 240.345,96.668 238.732 C 97.031 237.119,97.658 235.350,98.061 234.800 C 98.464 234.250,99.006 232.720,99.266 231.400 C 99.527 230.080,100.077 228.539,100.489 227.976 C 100.901 227.412,101.497 225.714,101.814 224.203 C 102.130 222.691,102.544 221.352,102.734 221.227 C 103.375 220.807,103.921 219.410,104.347 217.101 C 104.581 215.839,105.137 214.309,105.583 213.703 C 106.030 213.096,106.590 211.539,106.829 210.242 C 107.067 208.945,107.604 207.415,108.023 206.842 C 108.441 206.269,109.037 204.576,109.347 203.081 C 109.657 201.586,110.221 200.019,110.600 199.600 C 110.979 199.181,111.538 197.654,111.841 196.208 C 112.144 194.761,112.741 193.088,113.167 192.489 C 113.594 191.890,114.156 190.320,114.418 189.000 C 114.680 187.680,115.221 186.139,115.621 185.575 C 116.021 185.011,116.636 183.309,116.988 181.791 C 117.339 180.274,117.911 178.719,118.259 178.335 C 118.606 177.952,119.138 176.454,119.441 175.008 C 119.744 173.561,120.341 171.888,120.767 171.289 C 121.194 170.690,121.748 169.120,122.000 167.800 C 122.252 166.480,122.811 164.904,123.243 164.297 C 123.675 163.691,124.228 162.161,124.473 160.897 C 125.162 157.348,124.268 157.575,137.124 157.694 L 148.540 157.800 149.007 159.874 M250.327 158.544 C 251.056 158.952,252.868 159.491,254.351 159.743 C 256.230 160.061,257.433 160.524,258.315 161.266 C 259.011 161.852,260.137 162.454,260.816 162.604 C 261.564 162.768,262.223 163.251,262.486 163.830 C 262.726 164.355,263.256 164.891,263.665 165.021 C 264.074 165.150,264.698 165.829,265.051 166.528 C 265.404 167.228,266.021 168.160,266.421 168.600 C 269.481 171.968,271.451 186.142,269.251 188.965 C 269.065 189.204,268.545 190.507,268.096 191.860 C 267.647 193.214,266.946 194.668,266.540 195.093 C 266.133 195.518,265.260 196.489,264.600 197.252 C 263.940 198.014,262.815 199.068,262.100 199.594 C 261.385 200.120,260.800 200.760,260.800 201.016 C 260.800 201.603,265.995 206.000,266.688 206.000 C 266.969 206.000,267.200 206.179,267.200 206.399 C 267.200 206.618,267.804 207.473,268.543 208.299 C 269.281 209.124,270.195 210.743,270.573 211.895 C 270.952 213.048,271.439 214.100,271.655 214.234 C 273.416 215.322,273.428 229.744,271.671 233.135 C 271.026 234.381,270.377 235.962,270.228 236.650 C 270.080 237.337,269.532 238.300,269.011 238.789 C 268.491 239.279,267.850 240.195,267.589 240.826 C 267.328 241.457,266.773 242.082,266.357 242.214 C 265.941 242.346,265.600 242.616,265.600 242.814 C 265.600 243.699,261.705 247.070,260.165 247.518 C 259.266 247.779,258.139 248.333,257.660 248.748 C 257.131 249.206,255.339 249.767,253.095 250.177 C 251.063 250.548,248.140 251.155,246.600 251.526 C 244.134 252.119,240.936 252.200,219.818 252.200 L 195.837 252.200 195.558 251.200 C 195.214 249.965,195.116 159.756,195.457 158.482 L 195.703 157.563 222.351 157.683 C 247.420 157.796,249.079 157.847,250.327 158.544 M359.000 157.914 C 350.394 158.530,343.674 160.451,340.600 163.176 C 340.160 163.566,339.260 164.198,338.600 164.581 C 337.423 165.264,336.976 165.793,334.639 169.272 C 334.000 170.222,333.149 171.483,332.746 172.073 C 332.344 172.664,331.828 173.984,331.598 175.008 C 331.369 176.031,330.811 177.595,330.358 178.482 C 329.741 179.692,329.432 181.439,329.123 185.467 C 328.555 192.868,327.966 192.400,337.843 192.400 C 345.997 192.400,347.478 192.137,347.793 190.631 C 347.889 190.174,348.368 187.850,348.857 185.467 C 351.099 174.558,364.434 171.253,369.735 180.293 C 370.431 181.480,371.233 182.845,371.518 183.326 C 372.574 185.110,371.971 191.442,370.470 194.327 C 368.067 198.944,363.085 204.319,358.166 207.600 C 357.672 207.930,356.193 209.037,354.881 210.061 C 353.569 211.084,352.068 212.149,351.547 212.428 C 351.026 212.707,349.340 213.985,347.800 215.267 C 338.190 223.273,333.292 228.883,331.588 233.835 C 331.203 234.954,330.579 236.467,330.201 237.198 C 328.525 240.439,327.165 251.739,328.374 252.386 C 329.388 252.929,391.142 252.951,392.000 252.408 C 393.036 251.753,392.875 236.537,391.824 235.768 C 391.181 235.298,388.010 235.200,373.400 235.200 C 352.611 235.200,352.886 235.250,356.300 232.123 C 359.400 229.284,363.085 226.431,365.879 224.709 C 366.496 224.329,367.810 223.383,368.800 222.606 C 369.790 221.829,371.140 220.854,371.800 220.439 C 375.848 217.894,387.200 207.402,387.200 206.205 C 387.200 205.934,387.643 205.059,388.185 204.261 C 392.304 198.191,393.820 184.650,391.103 178.200 C 390.547 176.880,389.970 175.227,389.820 174.528 C 389.671 173.828,389.277 173.030,388.945 172.754 C 388.613 172.479,388.013 171.611,387.611 170.827 C 386.570 168.794,379.155 162.000,377.977 162.000 C 377.695 162.000,376.550 161.489,375.432 160.865 C 373.868 159.992,372.109 159.527,367.800 158.849 C 360.953 157.771,360.975 157.773,359.000 157.914 M370.585 160.008 C 372.311 160.264,373.681 160.710,374.185 161.182 C 374.633 161.601,375.847 162.155,376.882 162.414 C 378.079 162.714,378.993 163.234,379.391 163.843 C 379.736 164.369,380.242 164.800,380.515 164.800 C 380.787 164.800,381.818 165.631,382.805 166.647 C 383.792 167.662,385.095 168.963,385.700 169.536 C 386.305 170.109,386.800 170.794,386.800 171.058 C 386.800 171.323,387.212 172.047,387.716 172.669 C 388.838 174.056,389.600 175.758,389.600 176.880 C 389.600 177.344,390.065 178.705,390.632 179.905 C 392.037 182.875,392.179 191.161,390.890 195.000 C 390.447 196.320,389.855 198.300,389.575 199.400 C 389.294 200.500,388.652 201.901,388.148 202.512 C 387.643 203.124,387.070 204.204,386.873 204.912 C 386.675 205.621,385.544 207.222,384.357 208.472 C 383.171 209.721,381.889 211.071,381.509 211.472 C 381.128 211.872,380.178 212.740,379.396 213.400 C 378.614 214.060,377.458 215.095,376.827 215.700 C 376.195 216.305,375.506 216.800,375.294 216.800 C 375.082 216.800,374.480 217.210,373.955 217.712 C 373.430 218.213,372.280 219.118,371.400 219.723 C 367.747 222.234,366.961 222.817,366.186 223.589 C 365.738 224.035,365.170 224.400,364.924 224.400 C 364.677 224.400,363.722 225.030,362.800 225.800 C 361.878 226.570,360.967 227.200,360.775 227.200 C 360.584 227.200,359.796 227.785,359.024 228.500 C 358.253 229.215,356.893 230.430,356.002 231.200 C 350.780 235.714,351.840 236.000,373.772 236.000 L 391.507 236.000 391.748 236.900 C 392.274 238.863,392.024 251.482,391.450 251.958 C 390.821 252.480,329.490 252.424,328.967 251.901 C 328.322 251.255,329.885 239.552,330.778 238.345 C 331.241 237.718,331.797 236.269,332.014 235.124 C 332.232 233.979,332.759 232.670,333.186 232.215 C 333.613 231.761,334.239 230.726,334.577 229.917 C 334.915 229.107,335.599 228.020,336.096 227.501 C 336.593 226.982,337.742 225.758,338.649 224.779 C 339.555 223.801,341.625 221.790,343.249 220.311 C 344.872 218.833,346.560 217.283,347.000 216.867 C 347.440 216.452,348.385 215.812,349.100 215.446 C 349.815 215.079,350.400 214.609,350.400 214.400 C 350.400 214.191,350.985 213.721,351.700 213.354 C 353.104 212.634,354.803 211.354,357.081 209.300 C 357.874 208.585,358.755 208.000,359.039 208.000 C 359.322 208.000,359.822 207.619,360.148 207.152 C 360.475 206.686,361.366 205.921,362.128 205.452 C 364.187 204.186,366.643 201.832,367.771 200.047 C 368.319 199.178,368.958 198.350,369.190 198.206 C 369.422 198.063,369.864 197.343,370.171 196.608 C 370.478 195.872,371.088 194.912,371.526 194.474 C 373.090 192.910,373.183 183.183,371.649 181.649 C 371.272 181.272,370.596 180.251,370.148 179.382 C 366.046 171.424,350.636 173.665,348.742 182.495 C 348.495 183.648,348.047 184.966,347.748 185.424 C 347.448 185.881,347.086 187.371,346.944 188.734 C 346.623 191.808,347.133 191.659,337.400 191.514 L 329.800 191.400 329.882 186.477 C 329.951 182.295,330.087 181.354,330.787 180.221 C 331.240 179.488,331.799 177.833,332.028 176.544 C 332.258 175.255,332.767 173.750,333.161 173.200 C 333.554 172.650,334.171 171.629,334.532 170.931 C 334.893 170.233,335.732 169.067,336.396 168.340 C 337.061 167.612,337.702 166.708,337.823 166.329 C 337.943 165.951,338.404 165.526,338.847 165.385 C 339.290 165.244,340.250 164.604,340.981 163.963 C 341.712 163.321,343.086 162.522,344.035 162.188 C 344.984 161.853,346.039 161.335,346.380 161.037 C 348.311 159.348,362.158 158.760,370.585 160.008 M215.289 174.623 C 214.416 175.234,214.400 175.407,214.400 184.004 C 214.400 193.294,214.622 194.640,216.220 195.041 C 219.060 195.754,241.411 194.993,242.800 194.137 C 243.570 193.662,244.956 193.072,245.880 192.827 C 247.012 192.526,247.858 191.961,248.474 191.095 C 248.978 190.389,249.687 189.513,250.051 189.149 C 251.449 187.751,251.453 181.060,250.056 179.650 C 249.695 179.285,249.090 178.508,248.711 177.924 C 248.332 177.339,247.612 176.736,247.111 176.584 C 246.610 176.432,245.823 175.964,245.363 175.543 C 243.585 173.920,217.436 173.119,215.289 174.623 M244.900 176.480 C 246.605 177.294,248.000 178.136,248.000 178.350 C 248.000 178.564,248.495 179.327,249.100 180.046 C 250.920 182.209,250.726 186.284,248.659 189.287 C 245.856 193.360,241.372 194.394,226.509 194.398 L 216.418 194.400 215.709 193.316 C 214.751 191.852,214.631 176.566,215.569 175.436 C 216.090 174.810,217.248 174.761,228.969 174.875 L 241.800 175.000 244.900 176.480 M134.831 184.963 C 134.574 185.273,134.076 186.934,133.725 188.656 C 133.374 190.377,132.762 192.238,132.364 192.793 C 131.967 193.347,131.438 194.970,131.188 196.400 C 130.938 197.830,130.393 199.555,129.976 200.233 C 129.558 200.912,128.938 202.793,128.597 204.415 C 128.256 206.036,127.730 207.641,127.428 207.981 C 125.948 209.650,125.560 214.360,126.800 215.600 C 128.038 216.838,145.482 216.835,146.603 215.597 C 147.669 214.419,147.438 211.564,146.038 208.619 C 145.406 207.288,144.778 205.313,144.642 204.230 C 144.507 203.146,144.030 201.638,143.582 200.879 C 143.134 200.120,142.512 198.164,142.200 196.533 C 141.888 194.902,141.286 193.127,140.863 192.589 C 140.433 192.042,139.968 190.594,139.808 189.306 C 139.252 184.826,136.754 182.646,134.831 184.963 M138.440 187.100 C 138.671 187.705,139.043 189.184,139.267 190.387 C 139.490 191.590,140.006 193.228,140.414 194.027 C 140.821 194.825,141.434 196.683,141.775 198.155 C 142.117 199.627,142.654 201.330,142.969 201.940 C 143.284 202.549,143.916 204.550,144.372 206.385 C 144.829 208.220,145.359 209.919,145.549 210.161 C 146.541 211.418,146.877 213.624,146.227 214.615 L 145.582 215.600 136.600 215.600 L 127.618 215.600 126.990 214.642 C 126.411 213.757,126.428 213.501,127.214 211.342 C 127.682 210.054,128.468 207.560,128.961 205.800 C 129.453 204.040,130.148 202.045,130.504 201.367 C 130.860 200.688,131.431 198.930,131.772 197.458 C 132.113 195.987,132.657 194.380,132.980 193.887 C 133.303 193.393,133.767 192.002,134.009 190.795 C 134.707 187.326,135.152 186.465,136.339 186.283 C 136.923 186.193,137.539 186.093,137.710 186.060 C 137.880 186.027,138.209 186.495,138.440 187.100 M281.762 206.841 C 280.685 208.029,280.368 222.681,281.385 224.233 L 282.018 225.200 299.733 225.200 C 314.391 225.200,317.581 225.102,318.224 224.633 C 319.454 223.734,319.620 209.225,318.421 207.300 L 317.612 206.000 300.068 206.000 C 282.748 206.000,282.514 206.011,281.762 206.841 M317.780 207.837 C 318.327 208.384,318.401 209.582,318.308 216.337 L 318.200 224.200 300.000 224.200 L 281.800 224.200 281.691 216.251 C 281.616 210.726,281.722 208.135,282.040 207.751 C 282.779 206.861,316.885 206.943,317.780 207.837 M216.177 210.276 C 214.479 211.575,214.400 212.157,214.400 223.413 C 214.400 232.133,214.511 234.399,214.967 235.024 C 216.283 236.826,242.899 236.190,245.800 234.287 C 247.825 232.959,251.170 229.927,251.191 229.400 C 251.200 229.180,251.650 228.100,252.191 227.000 C 254.033 223.255,252.697 216.241,249.853 214.722 C 249.384 214.472,248.548 213.784,247.995 213.193 C 247.305 212.456,246.392 212.030,245.080 211.833 C 244.029 211.675,242.501 211.261,241.685 210.912 C 240.043 210.210,217.014 209.636,216.177 210.276 M237.637 211.597 C 247.026 212.375,249.486 213.718,251.400 219.110 L 252.476 222.140 251.576 225.570 C 250.491 229.709,248.838 231.685,244.800 233.673 L 242.200 234.953 229.179 235.113 C 217.171 235.260,216.113 235.218,215.579 234.575 C 214.525 233.307,214.523 214.185,215.576 212.500 L 216.388 211.200 224.694 211.206 C 229.262 211.210,235.086 211.386,237.637 211.597 " stroke="none" fill="#547c4c" fill-rule="evenodd"></path><path id="path3" d="M19.231 157.036 L 18.000 158.071 18.000 205.007 L 18.000 251.942 19.054 252.771 C 20.685 254.054,87.118 254.082,88.400 252.800 C 89.145 252.055,89.200 251.467,89.200 244.174 C 89.200 235.480,89.149 235.273,86.658 233.813 L 84.930 232.800 64.165 232.795 C 52.744 232.792,42.998 232.681,42.506 232.549 L 41.612 232.310 41.506 194.723 C 41.403 158.041,41.381 157.122,40.624 156.568 C 40.004 156.114,37.894 156.000,30.154 156.000 L 20.461 156.000 19.231 157.036 M124.756 156.265 C 124.063 156.450,123.200 158.022,123.200 159.097 C 123.200 159.460,122.763 160.397,122.229 161.178 C 121.695 161.960,121.071 163.634,120.843 164.897 C 120.615 166.161,120.059 167.693,119.608 168.303 C 119.158 168.913,118.623 170.430,118.420 171.675 C 118.218 172.920,117.603 174.627,117.054 175.469 C 116.506 176.311,115.935 177.900,115.787 179.000 C 115.638 180.100,115.096 181.630,114.581 182.400 C 114.066 183.171,113.438 185.013,113.182 186.500 C 112.927 187.985,112.547 189.200,112.339 189.200 C 111.795 189.200,110.946 191.468,110.615 193.800 C 110.459 194.900,109.993 196.166,109.578 196.613 C 109.163 197.060,108.577 198.604,108.276 200.043 C 107.974 201.483,107.345 203.187,106.878 203.830 C 106.407 204.479,105.849 206.144,105.625 207.570 C 105.404 208.983,105.082 210.243,104.911 210.370 C 104.014 211.034,103.529 212.167,103.160 214.460 C 102.917 215.970,102.433 217.338,101.968 217.834 C 101.508 218.324,100.956 219.871,100.629 221.588 C 100.323 223.194,99.903 224.619,99.696 224.754 C 99.044 225.180,98.506 226.521,98.001 228.976 C 97.732 230.283,97.173 231.813,96.758 232.376 C 96.344 232.939,95.813 234.442,95.579 235.717 C 95.345 236.991,94.726 238.663,94.203 239.433 C 93.658 240.237,93.138 241.758,92.982 243.007 C 92.830 244.222,92.378 245.564,91.958 246.049 C 90.455 247.781,89.909 251.852,91.029 252.971 C 91.569 253.512,93.185 253.600,102.600 253.600 C 114.222 253.600,114.800 253.508,114.800 251.649 C 114.800 251.268,115.240 250.359,115.777 249.631 C 116.402 248.784,116.849 247.495,117.018 246.053 C 117.174 244.721,117.665 243.228,118.220 242.400 C 118.745 241.617,119.338 239.875,119.566 238.447 C 119.789 237.043,120.084 235.783,120.219 235.647 C 120.744 235.121,151.353 235.168,152.374 235.696 C 153.180 236.113,153.430 236.692,153.828 239.054 C 154.092 240.624,154.677 242.424,155.127 243.054 C 155.610 243.730,156.128 245.425,156.390 247.188 C 156.634 248.831,157.126 250.497,157.482 250.890 C 157.838 251.284,158.330 252.009,158.576 252.503 C 159.022 253.397,159.058 253.400,170.498 253.506 L 181.974 253.612 182.570 252.702 C 183.520 251.253,182.515 245.589,181.227 245.135 C 181.017 245.061,180.661 243.848,180.435 242.440 C 180.187 240.890,179.625 239.302,179.012 238.418 C 178.456 237.614,177.992 236.427,177.982 235.778 C 177.961 234.329,177.080 231.780,176.287 230.874 C 175.963 230.503,175.500 229.046,175.257 227.635 C 175.002 226.147,174.489 224.719,174.036 224.235 C 173.571 223.738,173.062 222.287,172.778 220.650 C 172.491 218.997,171.997 217.597,171.539 217.139 C 171.094 216.694,170.558 215.215,170.249 213.578 C 169.930 211.895,169.391 210.424,168.895 209.889 C 168.368 209.321,167.968 208.165,167.787 206.685 C 167.613 205.263,167.125 203.812,166.521 202.921 C 165.980 202.124,165.382 200.519,165.193 199.354 C 164.856 197.289,164.200 195.611,163.565 195.191 C 163.391 195.077,162.979 193.690,162.650 192.109 C 162.320 190.529,161.689 188.733,161.248 188.118 C 160.807 187.503,160.255 185.932,160.023 184.626 C 159.790 183.320,159.251 181.880,158.824 181.426 C 158.372 180.944,157.883 179.567,157.650 178.122 C 157.237 175.556,156.624 174.000,156.027 174.000 C 155.837 174.000,155.473 172.798,155.217 171.329 C 154.749 168.641,154.287 167.430,153.385 166.528 C 153.117 166.260,152.773 165.048,152.622 163.836 C 152.460 162.544,151.946 161.043,151.378 160.206 C 150.846 159.421,150.297 158.329,150.159 157.779 C 150.021 157.229,149.581 156.604,149.180 156.389 C 148.477 156.013,126.125 155.899,124.756 156.265 M194.438 156.762 C 193.207 157.993,193.143 160.769,193.275 207.418 C 193.393 248.954,193.440 251.497,194.117 252.530 L 194.835 253.625 223.584 253.513 L 252.334 253.400 253.564 252.490 C 254.240 251.990,255.740 251.403,256.897 251.186 C 258.054 250.968,259.471 250.445,260.046 250.023 C 260.621 249.601,261.729 248.990,262.508 248.664 C 263.286 248.339,264.034 247.724,264.169 247.297 C 264.305 246.871,264.862 246.318,265.408 246.069 C 265.953 245.821,266.400 245.439,266.400 245.222 C 266.400 245.005,266.985 244.198,267.700 243.429 C 268.415 242.660,269.559 241.425,270.243 240.685 C 270.935 239.934,271.612 238.661,271.772 237.809 C 271.930 236.969,272.425 235.984,272.873 235.621 C 275.468 233.520,275.252 212.473,272.626 211.465 C 272.350 211.359,271.888 210.430,271.600 209.399 C 271.246 208.135,270.773 207.388,270.145 207.102 C 269.634 206.869,269.122 206.391,269.007 206.039 C 268.817 205.455,266.899 203.630,264.420 201.676 L 263.440 200.903 264.692 200.256 C 265.380 199.900,266.053 199.263,266.187 198.840 C 266.321 198.417,266.867 197.786,267.399 197.437 C 267.960 197.070,268.570 196.088,268.851 195.102 C 269.117 194.166,269.799 192.893,270.367 192.274 L 271.400 191.147 271.400 182.000 L 271.400 172.853 270.348 171.726 C 269.770 171.107,269.182 169.952,269.042 169.160 C 268.887 168.289,268.315 167.300,267.593 166.657 C 266.937 166.072,266.400 165.321,266.400 164.988 C 266.400 164.655,265.953 164.179,265.406 163.930 C 264.859 163.681,264.135 163.055,263.798 162.540 C 263.460 162.025,262.558 161.342,261.792 161.022 C 261.026 160.703,260.400 160.273,260.400 160.069 C 260.400 159.637,258.798 158.969,256.816 158.575 C 256.054 158.423,254.950 157.943,254.362 157.508 C 252.602 156.207,248.801 156.036,221.300 156.018 C 196.150 156.001,195.172 156.028,194.438 156.762 M353.440 156.842 C 352.143 157.031,350.703 157.433,350.240 157.734 C 349.778 158.036,348.246 158.485,346.835 158.733 C 345.424 158.980,343.894 159.518,343.435 159.927 C 342.976 160.336,342.031 160.895,341.336 161.169 C 340.641 161.443,339.605 162.192,339.033 162.834 C 338.462 163.475,337.732 164.000,337.411 164.000 C 337.090 164.000,336.620 164.405,336.365 164.900 C 336.110 165.395,335.463 166.250,334.927 166.800 C 333.182 168.588,331.201 172.049,330.952 173.744 C 330.818 174.655,330.249 176.083,329.688 176.917 C 328.748 178.314,328.636 178.961,328.281 185.028 C 327.759 193.929,326.885 193.200,338.082 193.200 C 349.857 193.200,349.276 193.537,349.933 186.340 C 350.588 179.161,356.154 175.376,363.379 177.195 C 369.286 178.682,372.775 185.920,370.204 191.355 C 369.656 192.513,369.091 194.044,368.949 194.757 C 368.805 195.473,368.266 196.332,367.745 196.673 C 367.225 197.013,366.800 197.534,366.800 197.830 C 366.800 198.300,364.942 200.285,361.600 203.385 C 361.050 203.895,360.195 204.518,359.700 204.770 C 359.205 205.022,358.800 205.480,358.800 205.787 C 358.800 206.095,358.395 206.468,357.900 206.618 C 357.405 206.768,356.550 207.299,356.000 207.799 C 355.450 208.299,354.460 208.982,353.800 209.316 C 353.140 209.651,352.164 210.391,351.630 210.962 C 351.097 211.533,350.426 212.000,350.139 212.000 C 349.853 212.000,349.336 212.432,348.990 212.960 C 348.644 213.487,347.830 214.139,347.181 214.408 C 346.531 214.677,346.000 215.053,346.000 215.244 C 346.000 215.434,345.292 216.037,344.428 216.583 C 341.182 218.632,335.458 224.632,333.600 227.934 C 333.269 228.521,332.604 229.396,332.122 229.878 C 331.639 230.361,331.125 231.440,330.979 232.278 C 330.833 233.115,330.293 234.430,329.780 235.200 C 329.256 235.986,328.636 237.827,328.366 239.400 C 328.101 240.940,327.640 242.575,327.340 243.034 C 326.826 243.819,326.040 248.482,326.012 250.900 C 325.980 253.770,323.842 253.600,359.977 253.600 L 392.355 253.600 392.977 252.711 C 394.170 251.008,393.872 236.636,392.618 235.382 L 391.636 234.400 373.618 234.400 C 361.873 234.400,355.600 234.261,355.600 234.000 C 355.600 233.780,355.878 233.600,356.219 233.600 C 356.559 233.600,357.144 233.061,357.519 232.403 C 357.893 231.744,358.419 231.204,358.686 231.203 C 358.953 231.201,359.763 230.685,360.486 230.055 C 361.209 229.426,362.380 228.614,363.088 228.251 C 363.797 227.889,364.558 227.253,364.780 226.838 C 365.002 226.423,365.729 225.894,366.397 225.661 C 367.064 225.428,367.722 224.949,367.857 224.595 C 367.993 224.241,368.805 223.671,369.663 223.328 C 370.520 222.985,371.442 222.393,371.711 222.012 C 371.980 221.631,372.794 221.013,373.521 220.639 C 374.247 220.264,374.944 219.691,375.069 219.364 C 375.194 219.037,375.888 218.523,376.610 218.222 C 377.332 217.920,378.037 217.314,378.176 216.876 C 378.315 216.438,378.856 215.972,379.378 215.841 C 380.546 215.548,388.000 207.727,388.000 206.794 C 388.000 206.422,388.521 205.574,389.158 204.907 C 389.794 204.241,390.444 203.089,390.601 202.348 C 390.758 201.607,391.263 200.590,391.723 200.089 C 393.750 197.883,393.792 178.601,391.775 176.372 C 391.457 176.021,390.919 174.800,390.580 173.659 C 390.242 172.518,389.612 171.365,389.182 171.096 C 388.752 170.827,388.400 170.399,388.400 170.143 C 388.400 169.365,384.344 164.830,382.826 163.910 C 382.042 163.435,381.004 162.631,380.519 162.123 C 380.035 161.615,379.315 161.197,378.919 161.193 C 378.524 161.189,377.444 160.673,376.520 160.047 C 375.333 159.242,374.101 158.825,372.320 158.624 C 370.934 158.467,369.510 158.078,369.155 157.758 C 367.783 156.519,359.114 156.014,353.440 156.842 M40.345 157.334 C 40.660 157.714,40.818 168.730,40.894 195.566 C 40.997 232.358,41.019 233.278,41.776 233.832 C 42.424 234.306,46.108 234.400,63.976 234.401 C 84.628 234.403,85.447 234.432,86.700 235.196 L 88.000 235.988 88.000 244.015 L 88.000 252.041 86.613 252.620 C 85.441 253.110,80.245 253.200,53.075 253.200 L 20.924 253.200 20.162 252.358 C 18.955 251.024,18.969 158.251,20.176 157.368 C 21.279 156.562,39.678 156.530,40.345 157.334 M149.120 157.280 C 149.384 157.544,149.600 158.057,149.600 158.420 C 149.600 158.784,150.057 159.940,150.615 160.989 C 151.173 162.039,151.826 163.821,152.067 164.949 C 152.307 166.077,152.919 167.810,153.427 168.800 C 153.935 169.790,154.476 171.320,154.630 172.200 C 154.783 173.080,155.308 174.610,155.795 175.600 C 156.282 176.590,156.896 178.279,157.160 179.354 C 157.423 180.428,157.969 181.958,158.373 182.754 C 158.777 183.549,159.395 185.326,159.746 186.702 C 160.097 188.079,160.645 189.609,160.963 190.102 C 161.281 190.596,161.839 192.170,162.204 193.600 C 162.569 195.030,163.192 196.740,163.590 197.400 C 163.987 198.060,164.517 199.577,164.767 200.770 C 165.017 201.964,165.557 203.494,165.967 204.170 C 166.377 204.847,166.911 206.349,167.154 207.509 C 167.397 208.668,168.022 210.468,168.543 211.509 C 169.064 212.549,169.617 214.120,169.770 215.000 C 169.924 215.880,170.465 217.410,170.973 218.400 C 171.481 219.390,172.105 221.177,172.359 222.370 C 172.614 223.564,173.172 225.107,173.600 225.800 C 174.028 226.493,174.583 228.036,174.833 229.230 C 175.083 230.423,175.610 231.940,176.003 232.600 C 176.397 233.260,177.015 234.968,177.376 236.395 C 177.737 237.822,178.284 239.374,178.592 239.844 C 178.900 240.314,179.446 241.835,179.806 243.225 C 180.167 244.615,180.792 246.401,181.197 247.195 C 182.395 249.543,182.615 251.499,181.786 252.416 C 181.070 253.207,162.110 253.677,160.218 252.951 C 159.345 252.617,157.401 248.346,156.808 245.461 C 156.544 244.175,155.895 242.195,155.367 241.061 C 154.840 239.927,154.406 238.622,154.404 238.160 C 154.383 233.761,153.756 233.600,136.673 233.600 C 119.284 233.600,120.055 233.401,118.829 238.200 C 118.604 239.080,118.156 240.175,117.834 240.633 C 117.512 241.091,116.969 242.670,116.628 244.141 C 116.287 245.613,115.668 247.488,115.253 248.309 C 114.837 249.129,114.371 250.386,114.216 251.103 C 113.783 253.109,113.275 253.200,102.455 253.200 C 90.285 253.200,89.387 252.695,92.362 247.520 C 92.780 246.794,93.324 245.223,93.572 244.030 C 93.819 242.836,94.372 241.293,94.800 240.600 C 95.228 239.907,95.783 238.364,96.033 237.170 C 96.283 235.977,96.813 234.460,97.210 233.800 C 97.608 233.140,98.231 231.430,98.596 230.000 C 98.961 228.570,99.519 226.996,99.837 226.502 C 100.155 226.009,100.700 224.479,101.048 223.102 C 101.396 221.726,102.000 220.060,102.391 219.400 C 102.782 218.740,103.324 217.210,103.596 216.000 C 103.867 214.790,104.425 213.212,104.835 212.492 C 105.246 211.773,105.869 210.063,106.220 208.692 C 106.572 207.322,107.105 205.818,107.405 205.351 C 107.706 204.884,108.246 203.354,108.605 201.951 C 108.965 200.548,109.519 198.996,109.837 198.502 C 110.155 198.009,110.703 196.479,111.054 195.102 C 111.406 193.726,112.098 191.790,112.592 190.800 C 113.086 189.810,113.617 188.305,113.772 187.455 C 113.927 186.604,114.478 184.984,114.996 183.855 C 115.514 182.725,116.292 180.720,116.725 179.400 C 117.941 175.687,118.826 173.183,119.696 171.000 C 120.134 169.900,120.829 167.830,121.240 166.400 C 121.651 164.970,122.330 163.170,122.750 162.400 C 123.170 161.630,123.643 160.370,123.801 159.600 C 124.395 156.714,123.991 156.800,136.982 156.800 C 145.516 156.800,148.769 156.929,149.120 157.280 M252.600 157.881 C 253.700 158.365,255.398 158.966,256.372 159.216 C 257.347 159.465,258.697 160.083,259.372 160.589 C 260.048 161.094,261.000 161.629,261.489 161.777 C 263.000 162.236,267.525 167.553,268.404 169.902 C 268.841 171.070,269.482 172.459,269.829 172.988 C 271.504 175.544,271.395 188.448,269.673 191.365 C 269.252 192.080,268.696 193.303,268.438 194.084 C 268.171 194.894,266.777 196.714,265.185 198.332 C 261.897 201.672,262.016 201.240,264.019 202.565 C 265.959 203.849,270.800 208.754,270.800 209.436 C 270.800 209.701,271.355 210.972,272.034 212.259 C 274.537 217.008,274.616 231.997,272.152 234.829 C 271.851 235.175,271.350 236.302,271.040 237.333 C 270.730 238.365,270.110 239.612,269.662 240.104 C 258.180 252.749,256.460 253.189,218.431 253.196 C 197.989 253.200,195.794 253.138,195.131 252.538 C 194.066 251.574,193.981 158.477,195.044 157.413 C 196.212 156.245,249.876 156.681,252.600 157.881 M367.137 158.362 C 369.262 158.781,371.714 159.246,372.586 159.396 C 373.459 159.546,374.666 160.020,375.269 160.449 C 375.872 160.878,376.958 161.431,377.682 161.679 C 379.753 162.384,387.600 169.252,387.600 170.358 C 387.600 170.567,388.024 171.247,388.541 171.869 C 389.059 172.491,389.807 173.990,390.203 175.200 C 390.599 176.410,391.183 177.801,391.502 178.291 C 392.233 179.417,392.878 186.853,392.568 190.600 C 392.075 196.579,391.557 198.452,389.196 202.800 C 388.778 203.570,388.089 204.930,387.665 205.823 C 387.241 206.715,385.179 209.145,383.081 211.223 C 377.843 216.411,374.288 219.291,369.038 222.600 C 368.340 223.040,367.399 223.760,366.947 224.200 C 366.495 224.640,365.602 225.315,364.963 225.700 C 359.957 228.716,354.359 233.719,355.129 234.490 C 355.524 234.885,359.672 235.025,373.502 235.112 C 389.325 235.211,391.446 235.298,392.082 235.874 C 393.126 236.819,393.175 251.323,392.138 252.469 C 391.212 253.492,330.971 253.616,328.538 252.600 L 327.101 251.999 327.311 249.900 C 327.724 245.771,329.266 238.572,330.075 237.000 C 330.527 236.120,331.162 234.500,331.486 233.400 C 331.810 232.300,332.397 231.040,332.791 230.600 C 333.184 230.160,333.813 229.195,334.187 228.454 C 334.956 226.934,343.686 218.134,346.542 216.000 C 347.573 215.230,348.908 214.189,349.508 213.687 C 350.109 213.185,351.590 212.074,352.800 211.218 C 358.971 206.850,366.197 200.753,366.968 199.262 C 367.287 198.646,367.836 197.903,368.188 197.610 C 371.236 195.081,373.061 185.007,370.891 182.697 C 370.401 182.175,370.000 181.590,370.000 181.396 C 370.000 179.090,364.124 175.368,360.600 175.442 C 353.573 175.590,349.699 179.746,348.592 188.325 C 348.419 189.665,347.977 190.848,347.394 191.525 L 346.471 192.600 338.518 192.723 C 331.142 192.836,330.493 192.789,329.577 192.068 L 328.588 191.290 328.915 185.745 C 329.180 181.227,329.414 179.830,330.175 178.200 C 330.689 177.100,331.240 175.570,331.400 174.800 C 333.800 163.240,351.228 155.224,367.137 158.362 M215.900 175.232 C 215.052 175.726,214.839 190.446,215.647 192.762 L 216.093 194.043 227.947 193.922 C 245.969 193.737,249.803 192.066,249.798 184.400 C 249.794 178.975,246.348 176.032,239.000 175.178 C 234.639 174.671,216.791 174.713,215.900 175.232 M239.074 176.045 C 239.693 176.290,241.640 176.875,243.400 177.345 L 246.600 178.200 247.879 180.800 C 250.806 186.748,248.155 190.898,240.689 192.057 C 234.369 193.038,216.608 193.118,216.243 192.167 C 216.109 191.819,216.000 187.949,216.000 183.567 L 216.000 175.600 226.974 175.600 C 234.091 175.600,238.344 175.756,239.074 176.045 M134.854 188.277 C 134.641 189.115,134.339 190.430,134.184 191.200 C 134.029 191.970,133.563 193.271,133.147 194.091 C 132.732 194.912,132.114 196.784,131.773 198.252 C 131.433 199.720,130.826 201.569,130.424 202.361 C 130.022 203.152,129.474 204.880,129.206 206.200 C 128.938 207.520,128.392 209.140,127.993 209.800 C 125.066 214.639,125.957 215.200,136.569 215.200 C 147.421 215.200,147.472 215.173,145.425 210.450 C 144.888 209.213,144.259 207.249,144.026 206.087 C 143.793 204.925,143.259 203.299,142.838 202.474 C 142.417 201.649,141.878 199.923,141.641 198.637 C 141.403 197.352,140.916 195.737,140.559 195.050 C 140.202 194.362,139.525 192.270,139.055 190.400 L 138.200 187.000 136.722 186.877 C 135.311 186.760,135.225 186.824,134.854 188.277 M138.182 189.700 C 138.290 190.195,138.557 191.634,138.775 192.897 C 138.993 194.161,139.535 195.691,139.979 196.297 C 140.453 196.944,140.946 198.546,141.173 200.175 C 141.412 201.885,141.889 203.394,142.415 204.106 C 142.927 204.799,143.419 206.322,143.644 207.912 C 143.861 209.442,144.447 211.293,145.030 212.287 C 146.338 214.520,146.700 214.437,136.191 214.308 C 126.406 214.188,126.487 214.217,128.447 211.485 C 128.887 210.871,129.474 209.063,129.752 207.466 C 130.030 205.862,130.635 204.033,131.101 203.381 C 131.587 202.700,132.115 201.055,132.346 199.496 C 132.581 197.917,133.080 196.370,133.546 195.777 C 134.360 194.743,134.557 194.055,134.999 190.700 C 135.291 188.478,137.746 187.707,138.182 189.700 M281.322 205.365 L 280.200 206.329 280.073 215.337 C 279.950 224.038,279.974 224.374,280.784 225.184 C 281.827 226.227,318.242 226.318,319.280 225.281 C 320.040 224.522,320.243 209.202,319.522 207.010 C 318.655 204.373,318.954 204.412,299.722 204.406 L 282.445 204.400 281.322 205.365 M318.218 206.582 C 319.478 207.842,319.783 223.360,318.571 224.571 C 317.747 225.396,282.098 225.538,281.280 224.720 C 280.327 223.767,280.633 207.921,281.629 206.654 L 282.458 205.600 299.847 205.600 L 317.236 205.600 318.218 206.582 M215.823 212.489 C 215.011 213.648,214.881 233.521,215.680 234.320 C 216.033 234.673,219.478 234.800,228.689 234.800 L 241.218 234.800 244.160 233.565 C 248.995 231.535,250.363 229.711,251.888 223.253 C 252.679 219.900,248.921 214.089,245.161 212.852 C 240.679 211.377,216.808 211.082,215.823 212.489 M241.835 213.133 C 244.701 213.372,245.234 213.547,246.509 214.666 C 247.300 215.361,248.296 216.040,248.721 216.175 C 250.940 216.879,250.827 229.600,248.601 229.600 C 248.261 229.600,247.777 230.051,247.526 230.602 C 247.214 231.287,246.551 231.740,245.435 232.031 C 244.536 232.266,242.720 232.850,241.400 233.329 C 239.146 234.147,238.308 234.200,227.600 234.200 L 216.200 234.200 216.093 224.007 C 216.034 218.401,216.073 213.586,216.180 213.307 C 216.395 212.747,235.644 212.617,241.835 213.133 " stroke="none" fill="#70a165" fill-rule="evenodd"></path><path id="path4" d="M39.862 157.200 C 40.116 157.530,40.406 158.250,40.507 158.800 L 40.691 159.800 40.746 158.749 C 40.776 158.170,40.486 157.452,40.100 157.149 C 39.491 156.671,39.460 156.678,39.862 157.200 M246.300 157.082 C 246.795 157.178,247.605 157.178,248.100 157.082 C 248.595 156.987,248.190 156.909,247.200 156.909 C 246.210 156.909,245.805 156.987,246.300 157.082 M252.400 158.200 C 252.950 158.514,253.580 158.772,253.800 158.772 C 254.020 158.772,253.750 158.514,253.200 158.200 C 252.650 157.886,252.020 157.628,251.800 157.628 C 251.580 157.628,251.850 157.886,252.400 158.200 M355.000 158.002 C 354.319 158.176,355.185 158.218,357.000 158.098 C 358.760 157.983,360.275 157.823,360.367 157.744 C 360.675 157.477,356.212 157.691,355.000 158.002 M360.833 157.751 C 360.925 157.834,362.260 158.002,363.800 158.126 C 365.952 158.298,366.230 158.269,365.000 157.998 C 363.383 157.642,360.526 157.473,360.833 157.751 M194.498 204.838 C 194.404 250.052,194.429 251.902,195.135 252.541 C 195.806 253.148,197.931 253.197,219.435 253.100 L 243.000 252.993 219.349 252.897 C 200.093 252.818,195.615 252.700,195.251 252.261 C 194.928 251.872,194.775 238.654,194.700 204.761 L 194.597 157.800 194.498 204.838 M19.393 204.600 C 19.393 229.900,19.441 240.191,19.500 227.469 C 19.559 214.747,19.559 194.047,19.500 181.469 C 19.441 168.891,19.393 179.300,19.393 204.600 M258.800 160.600 C 259.545 161.150,260.255 161.599,260.378 161.598 C 260.755 161.595,258.224 159.630,257.822 159.614 C 257.615 159.606,258.055 160.050,258.800 160.600 M374.000 160.020 C 375.387 160.961,376.178 161.235,375.200 160.436 C 374.650 159.986,374.020 159.617,373.800 159.615 C 373.580 159.613,373.670 159.796,374.000 160.020 M122.778 162.298 C 121.874 164.101,121.887 164.279,122.820 162.883 C 123.304 162.159,123.617 161.483,123.515 161.382 C 123.413 161.280,123.081 161.692,122.778 162.298 M340.555 162.835 C 338.631 164.363,338.373 164.636,339.400 164.060 C 340.413 163.491,342.681 161.605,342.355 161.602 C 342.220 161.601,341.410 162.156,340.555 162.835 M263.200 163.400 C 263.946 164.170,264.647 164.800,264.757 164.800 C 264.867 164.800,264.346 164.170,263.600 163.400 C 262.854 162.630,262.153 162.000,262.043 162.000 C 261.933 162.000,262.454 162.630,263.200 163.400 M383.583 166.100 C 384.564 167.145,385.419 168.000,385.483 168.000 C 385.784 168.000,385.466 167.641,383.700 165.983 L 381.800 164.200 383.583 166.100 M335.826 167.100 C 334.962 168.205,334.893 168.390,335.563 167.804 C 336.365 167.104,337.423 165.600,337.114 165.600 C 337.051 165.600,336.472 166.275,335.826 167.100 M120.500 168.900 C 120.070 170.075,120.080 170.126,120.612 169.424 C 121.121 168.752,121.421 167.600,121.088 167.600 C 121.026 167.600,120.761 168.185,120.500 168.900 M237.900 175.082 C 238.395 175.178,239.205 175.178,239.700 175.082 C 240.195 174.987,239.790 174.909,238.800 174.909 C 237.810 174.909,237.405 174.987,237.900 175.082 M357.000 175.786 C 355.422 176.508,355.779 176.520,358.000 175.821 C 358.990 175.509,359.440 175.250,359.000 175.245 C 358.560 175.240,357.660 175.483,357.000 175.786 M244.000 176.400 C 244.770 176.822,245.580 177.166,245.800 177.166 C 246.020 177.166,245.570 176.822,244.800 176.400 C 244.030 175.978,243.220 175.634,243.000 175.634 C 242.780 175.634,243.230 175.978,244.000 176.400 M353.103 177.700 C 352.585 178.195,352.440 178.400,352.780 178.156 C 353.121 177.912,353.760 177.512,354.200 177.268 C 354.640 177.024,354.785 176.819,354.522 176.812 C 354.260 176.805,353.621 177.205,353.103 177.700 M391.124 178.200 C 391.326 178.640,391.592 179.270,391.714 179.600 C 391.907 180.118,391.941 180.115,391.968 179.576 C 391.986 179.234,391.720 178.604,391.378 178.176 C 390.766 177.412,390.762 177.413,391.124 178.200 M214.964 184.600 C 214.963 188.340,215.023 189.924,215.097 188.120 C 215.171 186.315,215.172 183.255,215.098 181.320 C 215.025 179.384,214.964 180.860,214.964 184.600 M248.848 180.200 C 249.204 180.640,249.595 181.270,249.716 181.600 C 249.903 182.109,249.942 182.104,249.968 181.562 C 249.986 181.211,249.595 180.581,249.100 180.162 C 248.208 179.406,248.206 179.407,248.848 180.200 M270.931 182.200 C 270.933 183.740,271.005 184.321,271.092 183.491 C 271.179 182.661,271.177 181.401,271.089 180.691 C 271.000 179.981,270.929 180.660,270.931 182.200 M157.232 180.720 C 157.196 181.298,158.307 183.600,158.621 183.600 C 158.731 183.600,158.571 183.105,158.265 182.500 C 157.960 181.895,157.609 181.130,157.486 180.800 C 157.336 180.397,157.253 180.371,157.232 180.720 M250.120 184.400 C 250.120 185.610,250.195 186.105,250.287 185.500 C 250.378 184.895,250.378 183.905,250.287 183.300 C 250.195 182.695,250.120 183.190,250.120 184.400 M328.909 185.600 C 328.909 186.590,328.987 186.995,329.082 186.500 C 329.178 186.005,329.178 185.195,329.082 184.700 C 328.987 184.205,328.909 184.610,328.909 185.600 M136.200 186.376 C 135.046 186.642,135.065 186.660,136.704 186.837 C 137.702 186.945,138.354 186.862,138.279 186.636 C 138.104 186.111,137.616 186.050,136.200 186.376 M392.520 188.000 C 392.520 189.210,392.595 189.705,392.687 189.100 C 392.778 188.495,392.778 187.505,392.687 186.900 C 392.595 186.295,392.520 186.790,392.520 188.000 M348.218 188.218 C 348.065 189.239,348.022 190.155,348.122 190.255 C 348.222 190.355,348.429 189.602,348.582 188.582 C 348.735 187.561,348.778 186.645,348.678 186.545 C 348.578 186.445,348.371 187.198,348.218 188.218 M112.678 190.605 C 112.312 191.372,112.095 192.000,112.196 192.000 C 112.470 192.000,113.684 189.551,113.501 189.368 C 113.414 189.281,113.044 189.838,112.678 190.605 M334.100 192.698 C 336.245 192.770,339.755 192.770,341.900 192.698 C 344.045 192.626,342.290 192.567,338.000 192.567 C 333.710 192.567,331.955 192.626,334.100 192.698 M370.279 193.974 C 369.906 194.606,369.601 195.276,369.601 195.462 C 369.602 195.648,369.972 195.195,370.423 194.455 C 370.874 193.715,371.179 193.046,371.101 192.967 C 371.022 192.889,370.652 193.342,370.279 193.974 M221.724 194.299 C 224.762 194.367,229.622 194.367,232.524 194.299 C 235.426 194.231,232.940 194.175,227.000 194.175 C 221.060 194.175,218.686 194.231,221.724 194.299 M268.000 194.319 C 268.000 194.568,267.422 195.453,266.715 196.286 C 265.563 197.643,265.546 197.696,266.551 196.800 C 267.817 195.672,268.580 194.446,268.232 194.099 C 268.105 193.971,268.000 194.070,268.000 194.319 M368.129 197.700 C 367.684 198.195,367.176 198.870,367.001 199.200 C 366.663 199.837,366.755 199.750,368.376 197.900 C 368.906 197.295,369.249 196.800,369.139 196.800 C 369.029 196.800,368.575 197.205,368.129 197.700 M163.524 197.800 C 163.726 198.240,163.992 198.870,164.114 199.200 C 164.307 199.718,164.341 199.715,164.368 199.176 C 164.386 198.834,164.120 198.204,163.778 197.776 C 163.166 197.012,163.162 197.013,163.524 197.800 M390.900 198.500 C 390.470 199.675,390.480 199.726,391.012 199.024 C 391.521 198.352,391.821 197.200,391.488 197.200 C 391.426 197.200,391.161 197.785,390.900 198.500 M262.591 200.409 C 261.988 201.077,261.952 201.305,262.388 201.709 C 262.809 202.100,262.856 202.092,262.619 201.675 C 262.448 201.373,262.620 200.820,263.023 200.375 C 263.408 199.949,263.634 199.600,263.524 199.600 C 263.414 199.600,262.994 199.964,262.591 200.409 M142.026 200.400 C 142.033 200.987,143.550 204.049,143.583 203.544 C 143.592 203.403,143.244 202.503,142.809 201.544 C 142.374 200.585,142.021 200.070,142.026 200.400 M365.178 201.500 L 363.800 203.000 365.300 201.622 C 366.696 200.338,366.984 200.000,366.678 200.000 C 366.612 200.000,365.937 200.675,365.178 201.500 M130.272 201.819 C 129.332 203.789,129.464 204.124,130.447 202.262 C 130.893 201.416,131.187 200.654,131.101 200.567 C 131.014 200.481,130.641 201.044,130.272 201.819 M263.400 202.298 C 263.620 202.533,264.610 203.394,265.600 204.210 C 266.590 205.027,268.165 206.588,269.100 207.680 C 270.035 208.772,270.800 209.505,270.800 209.309 C 270.800 208.786,266.007 203.939,264.390 202.827 C 263.625 202.301,263.180 202.063,263.400 202.298 M361.000 205.052 L 358.600 207.285 361.100 205.203 C 363.274 203.392,363.897 202.771,363.500 202.810 C 363.445 202.815,362.320 203.824,361.000 205.052 M165.203 203.290 C 165.201 203.450,165.559 204.170,165.999 204.890 C 166.438 205.611,166.796 206.020,166.796 205.800 C 166.795 205.580,166.437 204.860,166.000 204.200 C 165.563 203.540,165.204 203.131,165.203 203.290 M281.762 206.500 C 281.002 207.398,281.002 207.399,281.827 206.704 C 282.580 206.071,284.201 205.999,300.027 205.900 L 317.400 205.791 299.962 205.696 L 282.524 205.600 281.762 206.500 M318.255 207.000 C 319.180 208.579,319.200 208.603,319.200 208.111 C 319.200 207.879,318.829 207.264,318.376 206.744 L 317.553 205.800 318.255 207.000 M128.100 208.900 C 127.670 210.075,127.680 210.126,128.212 209.424 C 128.721 208.752,129.021 207.600,128.688 207.600 C 128.626 207.600,128.361 208.185,128.100 208.900 M383.800 210.250 C 383.081 210.862,382.934 211.105,383.433 210.857 C 384.166 210.493,385.541 209.176,385.149 209.214 C 385.067 209.222,384.460 209.688,383.800 210.250 M353.355 210.835 C 351.431 212.363,351.173 212.636,352.200 212.060 C 353.213 211.491,355.481 209.605,355.155 209.602 C 355.020 209.601,354.210 210.156,353.355 210.835 M215.949 211.900 C 215.464 212.518,215.474 212.542,216.032 212.108 C 216.479 211.759,219.338 211.582,225.832 211.500 L 235.000 211.384 225.749 211.292 C 217.348 211.208,216.447 211.264,215.949 211.900 M104.581 212.837 C 104.229 213.518,104.012 214.145,104.099 214.232 C 104.186 214.319,104.556 213.762,104.922 212.995 C 105.744 211.270,105.459 211.138,104.581 212.837 M236.291 211.889 C 237.001 211.977,238.261 211.979,239.091 211.892 C 239.921 211.805,239.340 211.733,237.800 211.731 C 236.260 211.729,235.581 211.800,236.291 211.889 M214.972 222.800 C 214.972 227.970,215.029 230.085,215.099 227.500 C 215.168 224.915,215.168 220.685,215.099 218.100 C 215.029 215.515,214.972 217.630,214.972 222.800 M127.168 214.900 C 127.645 215.530,128.590 215.600,136.600 215.600 C 144.610 215.600,145.555 215.530,146.032 214.900 C 146.482 214.304,146.478 214.275,146.001 214.700 C 145.588 215.068,143.106 215.200,136.600 215.200 C 130.094 215.200,127.612 215.068,127.199 214.700 C 126.722 214.275,126.718 214.304,127.168 214.900 M347.076 215.700 C 345.830 216.933,345.825 216.949,346.981 216.003 C 347.652 215.455,348.371 214.870,348.580 214.703 C 348.789 214.536,348.831 214.400,348.674 214.400 C 348.517 214.400,347.798 214.985,347.076 215.700 M376.975 216.500 L 375.800 217.800 377.100 216.625 C 377.815 215.979,378.400 215.394,378.400 215.325 C 378.400 215.016,378.070 215.288,376.975 216.500 M340.981 220.900 L 339.400 222.600 341.100 221.019 C 342.681 219.548,342.984 219.200,342.681 219.200 C 342.616 219.200,341.851 219.965,340.981 220.900 M371.800 220.337 C 371.140 220.740,370.330 221.413,370.000 221.831 C 369.602 222.335,369.820 222.256,370.646 221.596 C 371.332 221.048,372.232 220.386,372.646 220.124 C 373.061 219.861,373.310 219.637,373.200 219.625 C 373.090 219.613,372.460 219.933,371.800 220.337 M273.709 221.600 C 273.709 222.590,273.787 222.995,273.882 222.500 C 273.978 222.005,273.978 221.195,273.882 220.700 C 273.787 220.205,273.709 220.610,273.709 221.600 M251.858 221.600 C 252.175 223.325,252.402 223.651,252.394 222.367 C 252.391 221.835,252.211 221.130,251.994 220.800 C 251.718 220.378,251.677 220.615,251.858 221.600 M337.578 224.300 L 336.200 225.800 337.700 224.422 C 338.525 223.663,339.200 222.988,339.200 222.922 C 339.200 222.616,338.862 222.904,337.578 224.300 M273.701 225.800 C 273.705 226.680,273.787 226.993,273.883 226.495 C 273.979 225.998,273.975 225.278,273.875 224.895 C 273.775 224.513,273.696 224.920,273.701 225.800 M362.800 226.860 C 362.030 227.535,361.762 227.905,362.204 227.681 C 362.935 227.311,364.747 225.578,364.362 225.616 C 364.273 225.625,363.570 226.185,362.800 226.860 M250.432 228.374 C 250.414 228.690,250.000 229.410,249.511 229.974 L 248.623 231.000 249.759 229.943 C 250.384 229.362,250.798 228.642,250.679 228.343 C 250.505 227.905,250.457 227.911,250.432 228.374 M273.293 230.800 C 273.293 231.570,273.375 231.885,273.476 231.500 C 273.576 231.115,273.576 230.485,273.476 230.100 C 273.375 229.715,273.293 230.030,273.293 230.800 M354.991 233.209 C 354.388 233.877,354.352 234.105,354.788 234.509 C 355.209 234.900,355.256 234.892,355.019 234.475 C 354.848 234.173,355.020 233.620,355.423 233.175 C 355.808 232.749,356.034 232.400,355.924 232.400 C 355.814 232.400,355.394 232.764,354.991 233.209 M129.526 233.500 C 133.555 233.565,140.035 233.565,143.926 233.499 C 147.817 233.434,144.520 233.380,136.600 233.381 C 128.680 233.381,125.497 233.434,129.526 233.500 M243.000 234.022 C 242.120 234.438,241.670 234.776,242.000 234.773 C 242.330 234.769,243.230 234.422,244.000 234.000 C 245.796 233.017,245.092 233.032,243.000 234.022 M120.000 234.400 C 119.560 234.840,119.212 235.425,119.227 235.700 C 119.242 235.975,119.446 235.802,119.681 235.315 C 119.916 234.829,120.579 234.258,121.154 234.047 C 121.845 233.793,121.962 233.652,121.500 233.632 C 121.115 233.614,120.440 233.960,120.000 234.400 M151.600 233.886 C 151.930 234.008,152.560 234.274,153.000 234.476 C 153.787 234.838,153.788 234.834,153.024 234.222 C 152.596 233.880,151.966 233.614,151.624 233.632 C 151.085 233.659,151.082 233.693,151.600 233.886 M215.549 234.500 C 216.053 235.142,217.072 235.192,227.949 235.106 L 239.800 235.013 228.034 234.900 C 219.455 234.818,216.095 234.654,215.634 234.294 C 215.074 233.857,215.064 233.881,215.549 234.500 M64.618 234.793 C 84.048 234.983,85.927 235.060,86.918 235.709 C 87.513 236.099,88.000 236.322,88.000 236.203 C 88.000 234.528,86.222 234.399,64.400 234.495 L 43.400 234.586 64.618 234.793 M392.501 237.800 C 392.505 238.680,392.587 238.993,392.683 238.495 C 392.779 237.998,392.775 237.278,392.675 236.895 C 392.575 236.513,392.496 236.920,392.501 237.800 M117.930 239.618 C 117.561 240.488,117.331 241.200,117.419 241.200 C 117.713 241.200,118.850 238.751,118.724 238.391 C 118.656 238.196,118.298 238.749,117.930 239.618 M94.679 240.774 C 94.306 241.406,94.001 242.076,94.001 242.262 C 94.002 242.448,94.372 241.995,94.823 241.255 C 95.274 240.515,95.579 239.846,95.501 239.767 C 95.422 239.689,95.052 240.142,94.679 240.774 M154.834 239.800 C 154.834 240.020,155.178 240.830,155.600 241.600 C 156.022 242.370,156.366 242.820,156.366 242.600 C 156.366 242.380,156.022 241.570,155.600 240.800 C 155.178 240.030,154.834 239.580,154.834 239.800 M268.000 241.600 C 267.530 242.260,267.236 242.800,267.346 242.800 C 267.456 242.800,267.930 242.260,268.400 241.600 C 268.870 240.940,269.164 240.400,269.054 240.400 C 268.944 240.400,268.470 240.940,268.000 241.600 M92.378 247.498 C 91.474 249.301,91.487 249.479,92.420 248.083 C 92.904 247.359,93.217 246.683,93.115 246.582 C 93.013 246.480,92.681 246.892,92.378 247.498 M115.072 247.819 C 114.132 249.789,114.264 250.124,115.247 248.262 C 115.693 247.416,115.987 246.654,115.901 246.567 C 115.814 246.481,115.441 247.044,115.072 247.819 M327.450 248.050 C 327.109 249.756,327.135 251.914,327.500 252.134 C 327.665 252.234,327.819 251.074,327.842 249.558 C 327.888 246.489,327.817 246.216,327.450 248.050 M392.501 250.600 C 392.505 251.480,392.587 251.793,392.683 251.295 C 392.779 250.798,392.775 250.078,392.675 249.695 C 392.575 249.313,392.496 249.720,392.501 250.600 M87.568 250.900 C 87.449 251.760,87.510 252.250,87.712 252.048 C 87.905 251.855,87.998 251.181,87.919 250.549 C 87.787 249.491,87.759 249.519,87.568 250.900 M20.742 252.902 C 20.909 253.069,35.615 253.159,53.422 253.102 L 85.800 253.000 53.120 252.800 C 35.146 252.690,20.576 252.736,20.742 252.902 M245.905 252.683 C 246.402 252.779,247.122 252.775,247.505 252.675 C 247.887 252.575,247.480 252.496,246.600 252.501 C 245.720 252.505,245.407 252.587,245.905 252.683 M360.600 252.800 L 329.400 253.007 360.476 253.104 C 380.867 253.167,391.638 253.062,391.800 252.800 C 391.936 252.580,391.992 252.443,391.924 252.496 C 391.856 252.549,377.760 252.686,360.600 252.800 M97.276 253.099 C 100.068 253.167,104.748 253.168,107.676 253.099 C 110.604 253.031,108.320 252.975,102.600 252.974 C 96.880 252.974,94.484 253.030,97.276 253.099 M165.500 253.099 C 168.415 253.167,173.185 253.167,176.100 253.099 C 179.015 253.031,176.630 252.975,170.800 252.975 C 164.970 252.975,162.585 253.031,165.500 253.099 " stroke="none" fill="#5c8454" fill-rule="evenodd"></path></g></svg>